PathFileType	4	(X/Y/Z)	C:/Users/opensim2020/Desktop/walking_exp_matlab/subject01_walking07_straight_01.trc	
DataRate	CameraRate	NumFrames	NumMarkers	Units	OrigDataRate	OrigDataStartFrame	OrigNumFrames	
100.00	100.00	5	43	mm	100.00	725	282	
Frame#	Time	LFHD			RFHD			LBHD			RBHD			C7			T10			CLAV			STRN			RBAK			LSHO			LUPA			LELB			LFRM			LWRA			LWRB			LFIN			RSHO			RUPA			RELB			RFRM			RWRA			RWRB			RFIN			LASI			RASI			LPSI			RPSI			LTHI			LKNE			LTIB			LANK			LHEE			LTOE			RTHI			RKNE			RTIB			RANK			RHEE			RTOE			*39			*40			*41			*42			
		X1	Y1	Z1	X2	Y2	Z2	X3	Y3	Z3	X4	Y4	Z4	X5	Y5	Z5	X6	Y6	Z6	X7	Y7	Z7	X8	Y8	Z8	X9	Y9	Z9	X10	Y10	Z10	X11	Y11	Z11	X12	Y12	Z12	X13	Y13	Z13	X14	Y14	Z14	X15	Y15	Z15	X16	Y16	Z16	X17	Y17	Z17	X18	Y18	Z18	X19	Y19	Z19	X20	Y20	Z20	X21	Y21	Z21	X22	Y22	Z22	X23	Y23	Z23	X24	Y24	Z24	X25	Y25	Z25	X26	Y26	Z26	X27	Y27	Z27	X28	Y28	Z28	X29	Y29	Z29	X30	Y30	Z30	X31	Y31	Z31	X32	Y32	Z32	X33	Y33	Z33	X34	Y34	Z34	X35	Y35	Z35	X36	Y36	Z36	X37	Y37	Z37	X38	Y38	Z38	X39	Y39	Z39	X40	Y40	Z40	X41	Y41	Z41	X42	Y42	Z42	X43	Y43	Z43	

71	0.700	1447.74316	-990.09338	1672.56299	1558.78552	-961.37775	1678.69299	1470.83411	-1101.63074	1621.00183	1588.79211	-1074.32104	1625.71838	1495.65527	-1128.43286	1431.96545	1481.40442	-1165.09094	1139.66199	1498.70850	-984.09729	1365.58569	1486.60950	-942.82733	1210.44043	1560.49048	-1185.58118	1235.26294	1336.67236	-1038.55396	1402.71472	1241.30164	-1064.64111	1223.01086	1230.25562	-1073.35120	1069.72632	1210.54761	-1005.25073	973.72668	1239.86169	-900.33435	886.94165	1208.42517	-946.82935	866.72656	1204.30737	-879.62781	817.52655	1648.35547	-1052.98035	1387.59204	1738.39893	-1116.09595	1185.59729	1739.29187	-1117.43237	1061.17395	1771.77844	-1092.44104	944.19739	1766.84143	-1009.31030	829.42957	1796.38586	-1059.45251	828.68652	1802.74451	-1021.48236	753.07520	1378.17175	-989.28217	930.18127	1594.55005	-999.94055	935.94592	1418.55664	-1176.16296	944.57922	1563.90259	-1184.35938	952.78516	1317.08435	-971.90027	599.56592	1328.15210	-966.09418	467.96191	1324.76733	-1106.99768	352.89905	1372.85693	-1261.92883	198.58450	1431.18323	-1309.24744	199.72397	1354.83850	-1189.54260	73.25137	1652.98816	-1045.15088	605.54309	1631.35095	-1020.96338	447.95941	1635.48364	-1070.87927	277.25812	1585.47339	-1085.57141	70.79357	1532.40979	-1129.84033	33.24781	1593.21887	-943.36090	31.32851	1538.72510	-978.33942	1711.55151	-3101.97900	1973.01794	1023.75470	-3140.62183	2012.54089	1022.07507			 
72	0.710	1449.53967	-981.70282	1673.03052	1560.47131	-952.40826	1679.08777	1473.17981	-1093.13696	1621.52332	1590.98547	-1065.36450	1626.28625	1498.25696	-1120.13599	1432.57788	1483.54736	-1156.99670	1140.29028	1500.66431	-975.73840	1366.19910	1488.35461	-934.58539	1211.01697	1563.16101	-1177.04163	1235.92053	1338.82959	-1030.89453	1403.45715	1243.47620	-1058.68213	1223.95129	1232.87573	-1069.18237	1070.69434	1212.50281	-1003.34869	973.21100	1241.12646	-900.41473	883.70135	1209.89014	-947.75781	864.73206	1205.35669	-881.70282	813.85266	1650.55273	-1043.86755	1388.08398	1741.12793	-1105.78308	1185.92334	1742.13562	-1106.11047	1061.24219	1774.35840	-1078.44141	944.64331	1768.66919	-992.87683	831.74597	1798.64697	-1042.71387	829.88269	1805.00098	-1003.00775	755.43921	1380.08984	-981.64917	930.79242	1596.68799	-992.17120	936.25916	1420.26514	-1168.14209	945.59985	1565.48108	-1176.51172	953.42975	1318.68030	-959.57007	601.80890	1330.05200	-951.18896	470.35489	1327.16516	-1090.04846	352.47800	1375.84729	-1240.94861	194.26363	1434.35059	-1288.97388	193.72786	1357.56665	-1163.70190	72.35231	1654.14233	-1040.13391	605.48853	1632.35400	-1018.57227	447.75983	1635.91003	-1070.26819	277.48575	1585.45447	-1085.32959	71.14653	1532.21289	-1129.65137	33.84954	1593.68176	-943.33069	31.27704	1540.46692	-969.50598	1712.01208	-3101.84717	1973.05835	1023.36847	-3140.60889	2012.48608	1021.96124			 
73	0.720	1451.20947	-973.33899	1673.40186	1562.05908	-943.51245	1679.49500	1475.37659	-1084.65808	1622.06506	1593.10474	-1056.51648	1626.96497	1500.69019	-1111.84753	1433.10022	1485.63159	-1148.93079	1140.89050	1502.55627	-967.33734	1366.78369	1490.02307	-926.39136	1211.50891	1565.70862	-1168.57520	1236.49902	1340.85571	-1023.24677	1404.11450	1245.55884	-1052.65271	1224.77991	1235.36328	-1064.92896	1071.69324	1214.39795	-1001.52374	972.73529	1242.40601	-900.74554	880.47858	1211.44666	-948.80298	862.89398	1206.20959	-883.99567	810.34967	1652.54346	-1035.16638	1388.60400	1743.67517	-1095.64941	1186.21289	1744.72107	-1095.00537	1061.27087	1776.74609	-1064.61145	945.06042	1770.35522	-976.58820	834.26465	1800.64954	-1026.10547	831.16559	1806.97644	-984.41028	757.91675	1382.13867	-973.74298	931.57062	1598.76758	-984.43256	936.48853	1421.91858	-1160.15796	946.43152	1567.04468	-1168.66296	954.02441	1320.12720	-947.58716	604.14380	1331.89783	-936.99200	472.80685	1329.39783	-1072.94958	351.16098	1378.66248	-1219.68005	189.24660	1437.45264	-1267.80933	186.75252	1359.64246	-1137.63879	71.22865	1655.18445	-1035.19519	605.55188	1633.20215	-1016.05084	447.67654	1636.26331	-1069.27283	277.81058	1585.44434	-1085.29333	71.37566	1531.98413	-1129.44275	34.44247	1593.79675	-943.20459	31.34924	1542.12146	-960.69470	1712.44250	-3101.90088	1973.14612	1023.46570	-3140.62036	2012.54297	1022.04486			 
74	0.730	1452.87317	-964.69757	1673.65479	1563.59131	-934.58392	1679.84888	1477.46033	-1076.07520	1622.44434	1595.06189	-1047.62231	1627.49817	1503.00024	-1103.52429	1433.53760	1487.79480	-1140.53687	1141.20093	1503.10266	-960.61084	1367.14294	1491.62122	-918.20416	1211.96509	1568.07837	-1160.09497	1236.95886	1342.81006	-1015.49915	1404.75525	1247.56567	-1046.70239	1225.58533	1237.69373	-1060.32935	1072.80151	1216.27808	-999.75690	972.21210	1243.19312	-900.95306	877.38403	1212.80383	-949.75226	861.11121	1207.11304	-886.45636	806.86664	1654.58850	-1026.25476	1389.02966	1746.05457	-1085.75110	1186.47290	1747.12549	-1084.07373	1061.21509	1778.95996	-1051.07849	945.52002	1771.97217	-960.39398	836.95270	1802.49329	-1009.80249	832.83514	1808.79895	-965.98071	760.58295	1384.14087	-965.73053	932.35291	1600.77209	-976.63702	936.64252	1423.54761	-1152.24194	947.16919	1568.65515	-1160.79431	954.61731	1321.39038	-935.79059	606.42090	1333.84900	-923.31287	475.26389	1331.32971	-1055.73792	349.05554	1381.62219	-1197.99268	183.90471	1440.46997	-1246.04541	179.08345	1361.76965	-1111.02942	69.31956	1656.13660	-1030.26465	605.54938	1633.96448	-1013.42432	447.69128	1636.45801	-1067.63489	277.89661	1585.45630	-1084.95996	71.70332	1531.71289	-1129.13574	34.72120	1594.19031	-943.06671	31.26228	1543.62244	-951.76575	1712.79688	-3101.91748	1973.08606	1023.38544	-3140.60400	2012.57898	1021.98187			 
75	0.740	1454.43420	-956.18109	1673.83386	1565.06470	-925.65302	1680.07813	1479.42444	-1067.62878	1622.92957	1596.88660	-1038.74670	1627.99707	1505.25732	-1095.22644	1433.96106	1489.71729	-1132.81140	1141.89575	1504.75732	-952.36121	1367.54968	1493.10706	-910.07367	1212.27771	1570.32800	-1151.63806	1237.30530	1344.64868	-1007.66809	1405.27515	1249.41309	-1040.56409	1226.29590	1239.90271	-1056.01917	1073.62024	1218.03503	-997.63165	971.82928	1244.29736	-901.29742	874.36255	1214.15698	-950.72351	859.45294	1208.08020	-888.89111	803.40991	1656.46777	-1017.48895	1389.38440	1748.24536	-1075.99182	1186.62622	1749.48352	-1073.23547	1061.21802	1780.96887	-1037.62463	945.91431	1773.44983	-944.34247	839.69458	1804.11426	-993.52850	834.28326	1810.43018	-947.68158	763.39221	1386.04089	-957.86963	933.11444	1602.67163	-968.84796	936.82532	1425.12329	-1144.32434	947.76581	1570.16150	-1152.91809	954.87500	1322.58997	-924.06921	608.62299	1335.65356	-910.05981	477.50888	1332.92480	-1038.29785	346.29660	1384.21521	-1175.46497	177.12079	1443.39294	-1223.47034	170.54619	1363.63367	-1083.94641	67.05363	1657.01794	-1025.38867	605.66010	1634.55188	-1010.39178	447.42126	1636.76831	-1065.84216	278.33008	1585.50366	-1084.72070	72.12431	1531.85876	-1128.89880	35.86605	1594.41870	-943.06799	31.18345	1545.08203	-942.90771	1713.10229	-3101.93091	1973.13965	1023.51685	-3140.64258	2012.51501	1022.00903			 
